<svg xmlns="http://www.w3.org/2000/svg" width="1120" height="820" viewBox="0 0 1120 820"><rect width="1120" height="820" fill="white"/><text x="100" y="28" font-family="sans-serif" font-size="20" font-weight="600">Annotation review — 45d7bca0-006f-45ab-9a45-2277a44540b7</text><text x="100" y="50" font-family="sans-serif" font-size="13" fill="#444">success · no model outputs shown</text><rect x="100" y="70" width="980" height="145" fill="#fafafa" stroke="#aab2bd"/><text x="100" y="60" font-family="sans-serif" font-size="14" font-weight="600">motion</text><text x="88" y="78" text-anchor="end" font-family="sans-serif" font-size="11">0.23</text><text x="88" y="215" text-anchor="end" font-family="sans-serif" font-size="11">-0.017</text><text x="22" y="142.5" text-anchor="middle" font-family="sans-serif" font-size="11" transform="rotate(-90 22 142.5)">speed (m/s)</text><polyline points="104.27,184.97 108.04,159.46 110.17,146.82 112.47,136.39 116.25,131.57 117.89,130.55 122.32,132.69 123.96,130.58 126.09,130.18 129.87,127.23 132.16,129.25 133.80,127.11 137.58,127.88 139.71,127.38 143.65,127.05 145.78,126.73 147.42,124.39 151.86,124.85 153.50,125.69 157.27,124.00 159.40,129.12 161.70,127.27 165.48,127.72 167.12,127.47 171.55,126.16 173.19,125.64 175.32,123.43 179.10,120.58 181.39,123.34 183.03,123.31 186.81,121.21 188.94,118.40 192.88,119.95 195.01,118.53 196.65,115.25 201.09,114.16 202.73,114.57 206.50,113.80 208.63,113.11 210.93,115.25 214.71,116.38 216.35,115.26 220.78,116.31 222.42,114.57 224.55,112.70 228.33,112.32 230.62,111.42 232.26,114.56 236.04,114.22 238.17,114.05 242.11,113.12 244.24,112.91 245.88,109.29 250.31,108.07 251.96,105.10 255.73,100.81 257.86,98.80 260.16,100.16 263.94,101.38 265.58,102.70 270.01,102.99 271.65,101.07 273.78,100.98 277.56,102.21 279.85,99.92 281.49,103.08 285.27,100.39 287.40,101.60 291.34,99.25 293.47,97.52 295.11,96.60 299.54,96.72 301.19,95.02 304.96,93.98 307.09,97.25 309.39,101.07 313.16,103.62 314.81,100.87 319.24,97.64 320.88,98.91 323.01,99.31 326.78,97.42 329.08,98.25 330.72,99.21 334.50,96.68 336.63,97.03 340.57,96.33 342.70,95.07 344.34,94.20 348.77,94.82 350.42,98.19 354.19,100.16 356.32,98.13 358.62,101.72 362.39,99.37 364.04,98.98 368.47,97.16 370.11,97.70 372.24,97.40 376.01,98.14 378.31,99.16 379.95,102.22 383.73,101.78 385.86,102.58 389.80,103.48 391.93,98.17 393.57,97.79 398.00,97.41 399.65,96.55 403.42,96.70 405.55,97.49 407.85,98.85 411.62,99.09 413.27,101.02 417.70,102.61 419.34,102.25 421.47,101.52 425.24,98.71 427.54,104.27 429.18,103.44 432.96,105.99 435.09,104.00 439.03,104.33 441.16,105.15 442.80,103.11 447.23,104.38 448.87,102.05 452.65,102.40 454.78,103.86 457.08,99.46 460.85,98.68 462.49,100.95 466.93,102.97 468.57,103.86 470.70,103.96 474.47,103.30 476.77,103.38 478.25,104.72 482.19,107.58 484.32,106.20 488.26,108.47 490.39,105.21 492.03,105.94 496.46,105.92 498.10,107.08 501.88,105.21 504.01,104.48 506.31,103.50 510.08,101.62 511.72,102.53 516.16,103.80 517.80,103.98 519.93,105.02 523.70,106.45 526.00,109.77 527.64,111.92 531.42,108.95 533.55,109.22 537.49,112.05 539.62,110.46 541.26,109.58 545.69,108.42 547.33,109.48 551.11,111.15 553.24,109.22 555.54,107.34 559.31,108.78 560.95,106.53 565.39,104.53 567.03,110.68 569.16,110.56 572.93,108.40 575.23,108.18 576.87,110.08 580.65,107.05 582.78,105.94 586.72,108.52 588.85,109.24 590.49,108.34 594.92,105.89 596.56,106.47 600.34,105.80 602.47,106.83 604.77,105.83 608.54,103.27 610.18,103.01 614.61,102.92 616.26,103.90 618.39,103.76 622.16,102.01 624.46,99.28 626.10,98.07 629.88,97.68 632.01,96.24 635.95,98.49 638.08,100.04 639.72,99.29 644.15,97.24 645.79,96.37 649.57,98.41 651.70,98.75 654.00,97.36 657.77,95.05 659.41,96.90 663.84,95.68 665.49,93.44 667.62,93.41 671.39,91.64 673.69,88.74 675.33,89.01 679.11,85.84 681.24,86.03 685.18,84.25 687.31,86.37 688.95,85.92 693.38,83.64 695.02,82.73 698.80,82.82 700.93,81.77 703.23,81.95 707.00,82.15 708.64,83.12 713.07,84.27 714.72,84.00 716.85,80.68 720.62,80.00 722.92,82.48 724.56,82.68 728.34,84.24 730.47,83.57 734.41,81.00 736.54,81.45 738.18,82.46 742.61,81.16 744.25,85.73 748.03,84.35 750.16,85.26 752.46,83.67 756.23,90.71 757.87,97.11 762.30,100.97 763.95,101.58 766.08,105.37 769.85,105.03 772.15,107.38 773.79,107.53 777.57,108.68 779.70,109.30 783.64,109.47 785.77,110.11 787.41,110.18 791.84,108.74 793.48,109.20 797.26,109.52 799.39,109.67 801.69,111.33 805.46,111.94 807.10,111.96 811.53,111.84 813.17,111.99 815.31,111.04 819.08,112.28 821.38,113.55 823.02,115.42 826.80,115.88 828.93,116.03 832.87,116.73 835.00,114.57 836.64,113.36 841.07,111.45 842.71,113.21 846.49,114.26 848.62,115.67 850.92,115.82 854.69,115.76 856.33,116.46 860.76,114.17 862.40,116.11 864.54,116.34 868.31,116.97 870.61,117.23 872.25,116.22 876.02,116.29 878.16,117.24 882.10,117.54 884.23,117.66 885.87,119.96 890.30,118.45 891.94,122.29 895.72,122.01 897.85,123.30 900.15,121.46 903.92,123.19 905.56,124.70 909.99,126.48 911.63,126.98 913.77,126.03 917.54,126.30 919.84,124.00 921.48,123.60 925.25,123.39 927.39,123.87 931.33,123.58 933.46,125.99 935.10,124.71 939.20,125.02 941.17,127.28 944.95,128.85 947.08,129.08 949.21,131.08 953.15,132.08 954.79,132.58 959.22,134.65 960.86,134.02 963.00,134.97 966.77,135.92 969.07,135.44 970.71,136.55 974.48,138.12 976.62,139.09 980.56,140.01 982.69,140.68 984.33,141.11 988.76,140.87 990.40,141.31 994.18,142.98 996.31,143.10 998.61,145.26 1002.38,144.97 1004.02,144.74 1008.45,144.12 1010.09,145.41 1012.23,145.37 1016.00,144.55 1018.30,145.75 1019.94,145.06 1023.71,143.91 1025.85,144.24 1029.79,145.40 1031.92,147.22 1033.56,146.77 1037.99,148.72 1039.63,149.95 1043.41,151.12 1045.54,149.13 1047.84,151.17 1051.61,151.45 1053.25,152.18 1057.68,154.62 1059.32,154.28 1061.46,155.18 1065.23,155.01 1067.53,158.75 1069.17,159.26 1072.94,158.05 1075.08,156.09 1079.02,205.00" fill="none" stroke="#2455a4" stroke-width="2"/><polyline points="100.16,205.00 102.13,205.00 104.10,205.00 106.07,195.32 108.04,184.97 110.01,173.53 111.98,152.70 114.11,141.05 115.92,136.39 117.89,132.48 119.86,130.55 121.83,130.55 123.79,132.23 125.76,130.61 127.73,130.22 129.70,130.18 131.67,127.35 133.64,129.02 135.61,127.15 137.58,127.11 139.55,127.88 141.52,127.38 143.49,127.38 145.46,127.05 147.42,126.76 149.39,124.39 151.36,124.39 153.33,124.76 155.30,125.69 157.27,125.69 159.24,124.00 161.21,128.62 163.18,127.65 165.15,127.27 167.12,127.68 169.09,127.47 171.05,127.47 173.02,126.42 174.99,125.64 176.96,123.69 178.93,123.43 180.90,120.68 182.87,122.68 184.84,123.31 186.81,123.31 188.78,121.21 190.75,118.51 192.72,118.40 194.69,119.95 196.65,118.68 198.62,115.25 200.59,115.25 202.56,114.38 204.53,114.57 206.50,114.57 208.47,113.80 210.44,113.11 212.41,114.78 214.38,115.25 216.35,116.27 218.32,115.26 220.28,115.26 222.25,116.10 224.22,114.57 226.19,112.90 228.16,112.70 230.13,112.32 232.10,111.60 234.07,114.42 236.04,114.56 238.01,114.22 239.98,114.05 241.95,114.05 243.91,113.12 245.88,112.94 247.85,109.30 249.82,109.29 251.79,108.32 253.76,105.22 255.73,105.10 257.70,100.89 259.67,98.82 261.64,99.89 263.61,100.16 265.58,101.26 267.55,102.70 269.51,102.70 271.48,102.93 273.45,101.09 275.42,100.99 277.39,100.98 279.36,102.21 281.33,100.43 283.30,102.94 285.27,103.08 287.24,100.39 289.21,101.60 291.18,101.60 293.14,99.31 295.11,97.70 297.08,96.60 299.05,96.60 301.02,96.69 302.99,95.02 304.96,95.02 306.93,93.98 308.90,97.10 311.03,100.07 312.84,101.07 314.81,103.29 316.77,100.87 318.74,100.87 320.71,98.44 322.68,98.91 324.65,99.27 326.62,99.31 328.59,97.44 330.56,98.08 332.53,99.21 334.50,99.21 336.47,96.68 338.44,97.03 340.41,97.03 342.37,96.33 344.34,95.20 346.31,94.20 348.28,94.20 350.25,94.70 352.22,98.03 354.19,98.19 356.16,100.16 358.13,98.16 360.26,100.81 362.07,101.72 364.04,99.67 366.00,98.98 367.97,98.98 369.94,97.53 371.91,97.70 373.88,97.43 375.85,97.40 377.82,98.14 379.79,98.96 381.76,102.09 383.73,102.22 385.70,101.78 387.67,102.58 389.63,102.58 391.60,103.48 393.57,99.24 395.54,97.79 397.51,97.79 399.48,97.49 401.45,96.55 403.42,96.55 405.39,96.70 407.36,97.49 409.33,98.58 411.30,98.85 413.27,99.07 415.23,101.02 417.20,101.02 419.17,102.29 421.14,102.25 423.11,101.59 425.08,101.52 427.05,98.81 429.02,102.55 430.99,103.44 432.96,103.44 434.93,105.99 436.90,104.02 438.86,104.00 440.83,104.33 442.80,105.07 444.77,103.11 446.74,103.11 448.71,104.12 450.68,102.11 452.65,102.05 454.62,102.40 456.59,103.86 458.72,100.69 460.53,99.46 462.49,98.76 464.46,100.95 466.43,100.95 468.40,102.54 470.37,103.86 472.34,103.95 474.31,103.96 476.28,103.30 478.25,103.37 480.22,104.72 482.19,104.72 484.16,107.58 486.13,106.20 488.09,106.20 490.06,108.42 492.03,105.68 494.00,105.94 495.97,105.94 497.94,105.92 499.91,107.08 501.88,107.08 503.85,105.21 505.82,104.48 507.95,103.70 509.76,103.50 511.72,101.82 513.69,102.53 515.66,102.53 517.63,103.55 519.60,103.98 521.57,104.92 523.54,105.02 525.51,106.45 527.48,108.95 529.45,111.88 531.42,111.92 533.39,108.95 535.35,109.22 537.32,109.22 539.29,111.95 541.26,110.62 543.23,109.58 545.20,109.58 547.17,108.54 549.14,109.48 551.11,109.48 553.08,111.15 555.05,109.24 557.02,107.73 558.99,107.34 560.95,108.64 562.92,106.53 564.89,106.53 566.86,104.95 568.83,109.89 570.80,110.57 572.77,110.56 574.74,108.44 576.71,108.22 578.68,110.07 580.65,110.08 582.62,107.05 584.58,105.94 586.55,105.94 588.52,108.44 590.49,109.17 592.46,108.34 594.43,108.34 596.40,106.45 598.37,106.47 600.34,106.47 602.31,105.80 604.28,106.83 606.25,105.93 608.22,105.83 610.18,103.61 612.15,103.01 614.12,103.01 616.09,102.94 618.06,103.90 620.03,103.78 622.00,103.76 623.97,102.01 625.94,99.92 627.91,98.07 629.88,98.07 631.85,97.68 633.81,96.24 635.78,96.24 637.75,98.44 639.72,99.89 641.69,99.29 643.66,99.29 645.63,97.68 647.60,96.37 649.57,96.37 651.54,98.41 653.51,98.75 655.48,97.50 657.44,97.36 659.41,95.33 661.38,96.90 663.35,96.90 665.32,95.92 667.29,93.48 669.26,93.41 671.23,93.41 673.20,91.64 675.17,89.44 677.14,89.01 679.11,89.01 681.08,85.84 683.04,86.03 685.01,86.03 686.98,84.25 688.95,86.13 690.92,85.92 692.89,85.92 694.86,84.14 696.83,82.73 698.80,82.73 700.77,82.82 702.74,81.77 704.71,81.92 706.67,81.95 708.64,82.13 710.61,83.12 712.58,83.12 714.55,84.04 716.52,84.00 718.49,81.17 720.46,80.68 722.43,80.00 724.40,81.92 726.37,82.68 728.34,82.68 730.30,84.24 732.27,83.57 734.24,83.57 736.21,81.08 738.18,81.41 740.15,82.46 742.12,82.46 744.09,81.42 746.06,85.35 748.03,85.73 750.00,84.35 751.97,85.26 753.94,83.99 755.90,83.67 757.87,88.95 759.84,96.71 761.81,97.11 763.78,99.95 765.75,101.58 767.72,104.76 769.69,105.37 771.66,105.03 773.63,107.08 775.60,107.53 777.57,107.53 779.53,108.68 781.50,109.30 783.47,109.30 785.44,109.47 787.41,110.05 789.38,110.18 791.35,110.18 793.32,109.03 795.29,109.20 797.26,109.20 799.23,109.52 801.20,109.67 803.16,111.00 805.13,111.33 807.10,111.88 809.07,111.96 811.04,111.96 813.01,111.86 814.98,111.99 816.95,111.13 818.92,111.04 820.89,112.28 822.86,113.30 824.83,115.41 826.80,115.42 828.76,115.88 830.73,116.03 832.70,116.03 834.67,116.73 836.64,114.83 838.61,113.36 840.58,113.36 842.55,111.66 844.52,113.21 846.49,113.21 848.46,114.26 850.43,115.67 852.39,115.79 854.36,115.82 856.33,115.76 858.30,116.46 860.27,116.46 862.24,114.68 864.21,116.09 866.18,116.32 868.15,116.34 870.12,116.97 872.09,117.18 874.06,116.22 876.02,116.22 877.99,116.29 879.96,117.24 881.93,117.24 883.90,117.54 885.87,117.65 887.84,119.96 889.81,119.96 891.78,118.76 893.75,122.05 895.72,122.29 897.69,122.01 899.66,123.30 901.79,121.83 903.59,121.46 905.56,123.01 907.53,124.70 909.50,124.70 911.47,126.12 913.44,126.98 915.41,126.12 917.38,126.03 919.35,126.30 921.32,124.29 923.29,123.60 925.25,123.60 927.22,123.39 929.19,123.87 931.16,123.87 933.13,123.58 935.10,125.69 937.07,124.71 939.04,124.71 941.01,125.02 942.98,127.23 944.95,127.28 946.92,128.85 949.21,129.08 950.85,130.66 952.82,131.08 954.79,131.98 956.76,132.58 958.73,132.58 960.70,134.21 962.67,134.02 964.64,134.87 966.61,134.97 968.58,135.92 970.55,135.49 972.52,136.55 974.48,136.55 976.45,138.12 978.42,139.09 980.39,139.09 982.36,140.01 984.33,140.61 986.30,141.11 988.27,141.11 990.24,140.92 992.21,141.31 994.18,141.31 996.15,142.98 998.11,143.10 1000.08,144.78 1002.05,145.26 1004.02,145.00 1005.99,144.74 1007.96,144.74 1009.93,144.18 1011.90,145.41 1013.87,145.37 1015.84,145.37 1017.81,144.55 1019.78,145.51 1021.74,145.06 1023.71,145.06 1025.68,143.91 1027.65,144.24 1029.62,144.24 1031.59,145.40 1033.56,147.03 1035.53,146.77 1037.50,146.77 1039.47,148.31 1041.44,149.95 1043.41,149.95 1045.38,151.12 1047.34,149.15 1049.31,150.94 1051.28,151.17 1053.25,151.42 1055.22,152.18 1057.19,152.18 1059.16,154.07 1061.13,154.28 1063.10,155.09 1065.07,155.18 1067.04,155.01 1069.01,158.16 1070.97,159.26 1072.94,159.26 1074.91,158.05 1076.88,156.11 1078.85,156.09" fill="none" stroke="#2f855a" stroke-width="2"/><line x1="376.18" y1="70" x2="376.18" y2="215" stroke="#e28a00" stroke-width="2" stroke-dasharray="6 5"/><line x1="935" y1="60" x2="959" y2="60" stroke="#2f855a" stroke-width="3"/><text x="965" y="64" font-family="sans-serif" font-size="11">measured_linear</text><line x1="790" y1="60" x2="814" y2="60" stroke="#2455a4" stroke-width="3"/><text x="820" y="64" font-family="sans-serif" font-size="11">command_linear</text><rect x="100" y="250" width="980" height="145" fill="#fafafa" stroke="#aab2bd"/><text x="100" y="240" font-family="sans-serif" font-size="14" font-weight="600">localisation health</text><text x="88" y="258" text-anchor="end" font-family="sans-serif" font-size="11">0.231</text><text x="88" y="395" text-anchor="end" font-family="sans-serif" font-size="11">0.0145</text><text x="22" y="322.5" text-anchor="middle" font-family="sans-serif" font-size="11" transform="rotate(-90 22 322.5)">covariance trace</text><polyline points="212.74,385.00 301.02,366.37 377.82,348.35 458.72,330.84 541.26,316.34 628.24,295.60 705.03,284.09 775.92,265.85 864.21,277.85 962.67,260.00" fill="none" stroke="#7c3aed" stroke-width="2"/><line x1="376.18" y1="250" x2="376.18" y2="395" stroke="#e28a00" stroke-width="2" stroke-dasharray="6 5"/><line x1="935" y1="240" x2="959" y2="240" stroke="#7c3aed" stroke-width="3"/><text x="965" y="244" font-family="sans-serif" font-size="11">pose_covariance_trace</text><rect x="100" y="430" width="980" height="145" fill="#fafafa" stroke="#aab2bd"/><text x="100" y="420" font-family="sans-serif" font-size="14" font-weight="600">LiDAR health</text><text x="88" y="438" text-anchor="end" font-family="sans-serif" font-size="11">1.06</text><text x="88" y="575" text-anchor="end" font-family="sans-serif" font-size="11">0.244</text><text x="22" y="502.5" text-anchor="middle" font-family="sans-serif" font-size="11" transform="rotate(-90 22 502.5)">valid fraction</text><polyline points="102.95,440.00 108.53,440.00 114.11,440.00 119.36,440.00 124.94,440.00 130.52,440.00 135.77,440.00 141.35,440.00 146.77,440.00 152.35,440.00 157.76,440.00 163.34,440.00 168.76,440.00 174.17,440.00 179.75,440.00 185.17,440.00 190.58,440.00 196.16,440.00 201.41,440.00 206.99,440.00 212.57,440.00 217.99,440.00 223.24,440.00 228.82,440.00 234.40,440.00 239.65,440.00 245.23,440.00 250.81,440.00 256.06,440.00 261.80,440.00 267.05,440.00 272.63,440.00 278.05,440.00 283.46,440.00 289.04,440.00 294.46,440.00 300.04,440.00 305.45,440.00 310.87,440.00 316.28,440.00 321.86,440.00 327.28,440.00 332.86,440.00 338.27,440.00 343.85,440.00 349.27,440.00 354.68,440.00 360.10,440.00 365.68,440.00 370.93,440.00 376.67,565.00 382.09,565.00 387.50,565.00 393.08,565.00 398.50,565.00 403.91,565.00 409.49,565.00 414.74,565.00 420.32,565.00 425.90,565.00 431.32,565.00 436.73,565.00 442.31,565.00 447.73,565.00 453.14,565.00 458.72,565.00 464.14,565.00 469.55,565.00 475.13,565.00 480.55,565.00 485.96,565.00 491.54,565.00 496.96,565.00 502.37,565.00 507.79,565.00 513.37,565.00 518.62,565.00 524.36,565.00 529.61,565.00 535.19,565.00 540.77,565.00 546.19,565.00 551.60,565.00 557.18,565.00 562.43,565.00 568.01,565.00 573.59,565.00 579.01,565.00 584.42,565.00 590.16,565.00 595.42,565.00 600.83,565.00 606.41,565.00 611.83,565.00 617.24,565.00 622.98,565.00 628.24,565.00 633.49,565.00 639.23,565.00 644.65,565.00 649.90,565.00 655.64,565.00 661.05,565.00 666.31,565.00 672.05,565.00 677.46,565.00 682.88,565.00 688.46,565.00 693.87,565.00 699.29,565.00 704.87,565.00 710.28,565.00 715.70,565.00 721.28,565.00 726.69,565.00 732.11,565.00 737.53,565.00 743.10,565.00 748.52,565.00 754.10,565.00 759.51,565.00 764.77,565.00 770.51,565.00 775.76,565.00 781.34,565.00 786.92,565.00 792.33,565.00 797.75,565.00 803.33,565.00 808.58,565.00 814.32,565.00 819.57,565.00 825.15,565.00 830.57,565.00 835.98,565.00 841.56,565.00 846.82,565.00 852.56,565.00 857.81,565.00 863.39,565.00 868.97,565.00 874.38,565.00 879.80,565.00 885.21,565.00 890.79,565.00 896.21,565.00 901.79,565.00 907.20,565.00 912.62,565.00 918.20,565.00 923.61,565.00 929.03,565.00 934.61,565.00 941.17,565.00 945.60,565.00 951.67,565.00 956.43,565.00 961.85,565.00 967.43,565.00 972.84,565.00 978.26,565.00 983.67,565.00 989.42,565.00 994.67,565.00 1000.25,565.00 1005.66,565.00 1011.08,565.00 1016.49,565.00 1022.24,565.00 1027.49,565.00 1033.07,565.00 1038.48,565.00 1043.90,565.00 1049.48,565.00 1054.89,565.00 1060.31,565.00 1065.89,565.00 1071.30,565.00 1076.72,565.00" fill="none" stroke="#0f766e" stroke-width="2"/><line x1="376.18" y1="430" x2="376.18" y2="575" stroke="#e28a00" stroke-width="2" stroke-dasharray="6 5"/><line x1="935" y1="420" x2="959" y2="420" stroke="#0f766e" stroke-width="3"/><text x="965" y="424" font-family="sans-serif" font-size="11">valid_return_fraction</text><rect x="100" y="610" width="980" height="145" fill="#fafafa" stroke="#aab2bd"/><text x="100" y="600" font-family="sans-serif" font-size="14" font-weight="600">forward clearance</text><text x="88" y="618" text-anchor="end" font-family="sans-serif" font-size="11">1.85</text><text x="88" y="755" text-anchor="end" font-family="sans-serif" font-size="11">-0.137</text><text x="22" y="682.5" text-anchor="middle" font-family="sans-serif" font-size="11" transform="rotate(-90 22 682.5)">range (m)</text><polyline points="102.95,676.39 108.53,677.52 114.11,677.99 119.36,678.22 124.94,680.00 130.52,680.31 135.77,680.31 141.35,681.74 146.77,683.44 152.35,683.48 157.76,682.93 163.34,682.70 168.76,683.65 174.17,685.49 179.75,684.83 185.17,685.91 190.58,686.49 196.16,685.57 201.41,684.81 206.99,685.12 212.57,620.00 217.99,620.96 223.24,621.85 228.82,622.87 234.40,623.97 239.65,624.63 245.23,625.87 250.81,627.73 256.06,627.60 261.80,629.69 267.05,630.98 272.63,631.54 278.05,632.78 283.46,634.31 289.04,635.23 294.46,636.68 300.04,637.24 305.45,639.27 310.87,640.98 316.28,643.12 321.86,642.02 327.28,643.33 332.86,644.80 338.27,645.77 343.85,647.34 349.27,648.20 354.68,649.90 360.10,651.56 365.68,652.12 370.93,653.42 376.67,745.00 382.09,745.00 387.50,745.00 393.08,745.00 398.50,745.00 403.91,745.00 409.49,745.00 414.74,745.00 420.32,745.00 425.90,745.00 431.32,745.00 436.73,745.00 442.31,745.00 447.73,745.00 453.14,745.00 458.72,745.00 464.14,745.00 469.55,745.00 475.13,745.00 480.55,745.00 485.96,745.00 491.54,745.00 496.96,745.00 502.37,745.00 507.79,745.00 513.37,745.00 518.62,745.00 524.36,745.00 529.61,745.00 535.19,745.00 540.77,745.00 546.19,745.00 551.60,745.00 557.18,745.00 562.43,745.00 568.01,745.00 573.59,745.00 579.01,745.00 584.42,745.00 590.16,745.00 595.42,745.00 600.83,745.00 606.41,745.00 611.83,745.00 617.24,745.00 622.98,745.00 628.24,745.00 633.49,745.00 639.23,745.00 644.65,745.00 649.90,745.00 655.64,745.00 661.05,745.00 666.31,745.00 672.05,745.00 677.46,745.00 682.88,745.00 688.46,745.00 693.87,745.00 699.29,745.00 704.87,745.00 710.28,745.00 715.70,745.00 721.28,745.00 726.69,745.00 732.11,745.00 737.53,745.00 743.10,745.00 748.52,745.00 754.10,745.00 759.51,745.00 764.77,745.00 770.51,745.00 775.76,745.00 781.34,745.00 786.92,745.00 792.33,745.00 797.75,745.00 803.33,745.00 808.58,745.00 814.32,745.00 819.57,745.00 825.15,745.00 830.57,745.00 835.98,745.00 841.56,745.00 846.82,745.00 852.56,745.00 857.81,745.00 863.39,745.00 868.97,745.00 874.38,745.00 879.80,745.00 885.21,745.00 890.79,745.00 896.21,745.00 901.79,745.00 907.20,745.00 912.62,745.00 918.20,745.00 923.61,745.00 929.03,745.00 934.61,745.00 941.17,745.00 945.60,745.00 951.67,745.00 956.43,745.00 961.85,745.00 967.43,745.00 972.84,745.00 978.26,745.00 983.67,745.00 989.42,745.00 994.67,745.00 1000.25,745.00 1005.66,745.00 1011.08,745.00 1016.49,745.00 1022.24,745.00 1027.49,745.00 1033.07,745.00 1038.48,745.00 1043.90,745.00 1049.48,745.00 1054.89,745.00 1060.31,745.00 1065.89,745.00 1071.30,745.00 1076.72,745.00" fill="none" stroke="#b45309" stroke-width="2"/><line x1="376.18" y1="610" x2="376.18" y2="755" stroke="#e28a00" stroke-width="2" stroke-dasharray="6 5"/><line x1="935" y1="600" x2="959" y2="600" stroke="#b45309" stroke-width="3"/><text x="965" y="604" font-family="sans-serif" font-size="11">minimum_front_range</text><text x="100.00" y="775" text-anchor="middle" font-family="sans-serif" font-size="12">10.7</text><text x="345.00" y="775" text-anchor="middle" font-family="sans-serif" font-size="12">15.1</text><text x="590.00" y="775" text-anchor="middle" font-family="sans-serif" font-size="12">19.6</text><text x="835.00" y="775" text-anchor="middle" font-family="sans-serif" font-size="12">24.1</text><text x="1080.00" y="775" text-anchor="middle" font-family="sans-serif" font-size="12">28.6</text><text x="590.0" y="800" text-anchor="middle" font-family="sans-serif" font-size="13">simulation time (s)</text><line x1="100" y1="802" x2="124" y2="802" stroke="#e28a00" stroke-width="2" stroke-dasharray="6 5"/><text x="130" y="806" font-family="sans-serif" font-size="12">injection onset</text><line x1="270" y1="802" x2="294" y2="802" stroke="#b3261e" stroke-width="3"/><text x="300" y="806" font-family="sans-serif" font-size="12">terminal event</text></svg>
